<svg xmlns="http://www.w3.org/2000/svg" xmlns:xlink="http://www.w3.org/1999/xlink" width="897.158" height="713.243" viewBox="0 0 897.158 713.243">
  <defs>
    <linearGradient id="linear-gradient" x1="0.5" x2="0.5" y2="1" gradientUnits="objectBoundingBox">
      <stop offset="0" stop-color="#0779e4"/>
      <stop offset="1" stop-color="#c32fc8"/>
    </linearGradient>
    <linearGradient id="linear-gradient-2" x1="0.5" y1="1" x2="0.5" gradientUnits="objectBoundingBox">
      <stop offset="0" stop-color="gray" stop-opacity="0.251"/>
      <stop offset="0.54" stop-color="gray" stop-opacity="0.122"/>
      <stop offset="1" stop-color="gray" stop-opacity="0.102"/>
    </linearGradient>
  </defs>
  <g id="Group_953" data-name="Group 953" transform="translate(0 0)">
    <path id="Path_705" data-name="Path 705" d="M616.366,167.151C559.6,165.178,505.524,146.855,453.9,126.8S351.133,84.535,295.725,73.913c-35.637-6.833-76.4-7.8-105.106,11.306-27.638,18.42-36.567,50.128-41.365,79.581-3.614,22.156-5.736,45.47,4.166,66.214,6.868,14.4,19.069,26.507,27.5,40.348,29.357,48,8.613,107.184-23.2,154.049-14.911,21.989-32.234,42.979-43.742,66.363S97.136,541.99,107.2,565.865c9.99,23.682,33.787,41.435,59.557,53.934,52.355,25.393,114.026,32.655,174.205,36.769,133.174,9.113,267.049,5.166,400.573,1.219,49.417-1.465,99.045-2.947,147.655-10.587,27-4.245,54.864-10.973,74.468-27.235,24.875-20.639,31.041-55.592,14.376-81.467C950.067,495.09,872.784,484.31,853.206,437.717c-10.754-25.638.3-54.2,15.929-77.985,33.541-51.013,89.756-95.773,92.721-154.084,2.035-40.058-25-80.16-66.784-99.115C851.277,86.6,790.527,89.122,758.232,122.006,724.953,155.889,666.485,168.888,616.366,167.151Z" transform="translate(-90.215 -46.624)" opacity="0.1" fill="url(#linear-gradient)"/>
    <path id="Path_706" data-name="Path 706" d="M389.212,654.568,88.991,653.1,59.16,583.135l105.483-7.657-18.384-76.713,208.632-27.042L155.108,402.273l17.648-4.193L494,450.488,476.311,570.207,451.023,636Z" transform="translate(-7.269 -48.922)" fill="#b97ebb"/>
    <path id="Path_707" data-name="Path 707" d="M187,698.8s18.42-2.947,29.471,10.069c0,0-8.1,6.385-25.542-2.456Z" transform="translate(-100.674 -123.923)" fill="#b97ebb"/>
    <path id="Path_708" data-name="Path 708" d="M183.74,698.51s-11.753,14.464-5.964,30.568c0,0,9.578-3.833,10.622-23.358Z" transform="translate(-99.343 -123.922)" fill="#b97ebb"/>
    <path id="Path_709" data-name="Path 709" d="M172.76,670.745s7.368-13.516,36.839,5.4c0,0-3.93,9.087-16.946,8.35S176.2,677.867,172.76,670.745Z" transform="translate(-98.924 -119.936)" fill="#b97ebb"/>
    <path id="Path_710" data-name="Path 710" d="M168.241,670.288s-15.288-1.754-16.771,33.243c0,0,9.692,2.009,16.578-9.061S172.109,677.191,168.241,670.288Z" transform="translate(-96.308 -120.453)" fill="#b97ebb"/>
    <path id="Path_711" data-name="Path 711" d="M160.44,636.644s8.6-23.823,39.786-6.877c0,0-7.122,21.858-36.594,14.981Z" transform="translate(-97.41 -114.728)" fill="#b97ebb"/>
    <path id="Path_712" data-name="Path 712" d="M149.52,596.286s16.209-24.068,44.944-1.754c0,0-10.069,22.595-42.488,10.315Z" transform="translate(-96.068 -109.981)" fill="#b97ebb"/>
    <path id="Path_713" data-name="Path 713" d="M145.6,557.843s18.911-22.112,47.365,0c0,0-17.928,19.4-47.365,5.649Z" transform="translate(-95.586 -105.43)" fill="#b97ebb"/>
    <path id="Path_714" data-name="Path 714" d="M142.24,520.2s19.156-23.086,46.417-1.228c0,0-21.612,20.384-46.417,6.631Z" transform="translate(-95.174 -100.705)" fill="#b97ebb"/>
    <path id="Path_715" data-name="Path 715" d="M144.2,486.047s20.174-29.717,45.681-9.578c0,0-21.612,25.542-45.681,15.227Z" transform="translate(-95.414 -95.778)" fill="#b97ebb"/>
    <path id="Path_716" data-name="Path 716" d="M149.52,447.292s21.367-29.471,46.172-6.877c0,0-25.3,25.542-46.172,12.28Z" transform="translate(-96.068 -91.161)" fill="#b97ebb"/>
    <path id="Path_717" data-name="Path 717" d="M157.485,411.962s25.3-27.7,47.365-16.665c0,0-26.358,29.419-48.47,24.016Z" transform="translate(-96.911 -86.345)" fill="#b97ebb"/>
    <path id="Path_718" data-name="Path 718" d="M167.43,378.19S196.621,344.263,213.6,355.6c0,0-21.507,26.314-48.242,28.945Z" transform="translate(-98.015 -81.501)" fill="#b97ebb"/>
    <path id="Path_719" data-name="Path 719" d="M181.79,340.359s25.551-27.7,44.216-20.823c0,0-21.858,28.735-47.645,29.471Z" transform="translate(-99.612 -77.22)" fill="#b97ebb"/>
    <path id="Path_720" data-name="Path 720" d="M195.268,304.511s28.243-26.524,40.523-21.858c0,0-20.384,29.471-41.751,27.752Z" transform="translate(-101.539 -72.755)" fill="#b97ebb"/>
    <path id="Path_721" data-name="Path 721" d="M208.32,270.5s24.314-31.69,37.585-29.235c0,0-14.744,28.252-37.585,32.454Z" transform="translate(-103.293 -67.72)" fill="#b97ebb"/>
    <path id="Path_722" data-name="Path 722" d="M222.176,226.665s21.49-24.288,33.1-24.235c0,0-16.964,32.454-33.988,32.155Z" transform="translate(-104.887 -62.965)" fill="#b97ebb"/>
    <path id="Path_723" data-name="Path 723" d="M230.21,193.312l20.761-50.592s1.035,45.733-23.4,59.978Z" transform="translate(-105.659 -55.628)" fill="#b97ebb"/>
    <path id="Path_724" data-name="Path 724" d="M240.17,130.389S243.609,88.138,241.4,84.7c0,0,14.841,35.129-1.368,64.354Z" transform="translate(-107.19 -48.499)" fill="#b97ebb"/>
    <path id="Path_725" data-name="Path 725" d="M154.552,637.442s-21.525-13.341-35.462,19.3c0,0,19.156,12.718,38-10.973Z" transform="translate(-92.329 -116.087)" fill="#b97ebb"/>
    <path id="Path_726" data-name="Path 726" d="M143.237,596.021s-26.4-12.043-39.207,22.033c0,0,20.393,14.034,41.611-13.42Z" transform="translate(-90.478 -111.075)" fill="#b97ebb"/>
    <path id="Path_727" data-name="Path 727" d="M137.565,560.153s-18.911-22.112-47.365,0c0,0,17.928,19.4,47.365,5.649Z" transform="translate(-88.779 -105.714)" fill="#b97ebb"/>
    <path id="Path_728" data-name="Path 728" d="M135,520.2s-19.156-23.086-46.417-1.228c0,0,21.612,20.384,46.417,6.631Z" transform="translate(-88.58 -100.705)" fill="#b97ebb"/>
    <path id="Path_729" data-name="Path 729" d="M138.226,486.171S124.788,452.884,95.58,467.2c0,0,15.788,29.515,41.453,24.5Z" transform="translate(-89.44 -95.06)" fill="#b97ebb"/>
    <path id="Path_730" data-name="Path 730" d="M145.429,446.133s-13.359-33.866-42.979-18.165c0,0,18.139,31.041,41.663,23.393Z" transform="translate(-90.284 -90.168)" fill="#b97ebb"/>
    <path id="Path_731" data-name="Path 731" d="M156.712,409.183s-5.263-37.129-29.822-40.453c0,0,5.21,39.155,26.515,47.145Z" transform="translate(-93.287 -83.4)" fill="#b97ebb"/>
    <path id="Path_732" data-name="Path 732" d="M165.3,375.275s-2.052-44.733-22.358-46.295c0,0,.684,33.953,20.069,52.627Z" transform="translate(-95.26 -78.515)" fill="#b97ebb"/>
    <path id="Path_733" data-name="Path 733" d="M181.107,336.152s-6.052-37.2-25.437-41.742c0,0,2.4,36.023,23.516,50.873Z" transform="translate(-96.824 -74.268)" fill="#b97ebb"/>
    <path id="Path_734" data-name="Path 734" d="M196.137,301.774s-.2-38.751-12.043-44.444c0,0-7.342,35.085,8.613,49.391Z" transform="translate(-100.109 -69.711)" fill="#b97ebb"/>
    <path id="Path_735" data-name="Path 735" d="M207.332,267.733s-1.658-39.9-13.92-45.523c0,0-4.193,31.576,12.087,48.136Z" transform="translate(-101.402 -65.396)" fill="#b97ebb"/>
    <path id="Path_736" data-name="Path 736" d="M222.613,228.077s-.07-32.454-8.824-40.067c0,0-8.7,35.55,4.254,46.593Z" transform="translate(-103.614 -61.193)" fill="#b97ebb"/>
    <path id="Path_737" data-name="Path 737" d="M227.761,191.013,219.244,137s-11.569,44.26,8.92,63.767Z" transform="translate(-104.236 -54.925)" fill="#b97ebb"/>
    <path id="Path_738" data-name="Path 738" d="M228.3,131.718S206.442,95.4,206.889,91.37c0,0,2.324,38.058,29.822,57.013Z" transform="translate(-103.117 -49.319)" fill="#b97ebb"/>
    <path id="Path_739" data-name="Path 739" d="M230.023,117.33s-20.63-51.575-29.963-55.75c0,0,29.471,14.981,31.682,54.276Z" transform="translate(-102.278 -45.658)" fill="#b97ebb"/>
    <path id="Path_740" data-name="Path 740" d="M220.972,224.933l-1.412-.43c17.411-56.776,21.753-92.975,12.236-102.053l1.009-1.07C242.9,130.958,238.8,166.762,220.972,224.933Z" transform="translate(-104.674 -53.006)" fill="#444053"/>
    <path id="Path_741" data-name="Path 741" d="M166.218,371.8l-2.088-.746c1.851-5.2,3.842-10.482,5.929-15.683,18.174-45.295,33.646-87.432,43.567-119.78l1.816-.877c-9.938,32.41-25.138,76.161-43.33,121.517C170.033,361.331,168.051,366.585,166.218,371.8Z" transform="translate(-97.863 -66.932)" fill="#444053"/>
    <path id="Path_742" data-name="Path 742" d="M207.16,702.811c-.281-.307-28.5-32.085-48.172-86.335a319.43,319.43,0,0,1-19.007-98.922c-1.351-42.216,7.508-89.353,22.682-132.174l1.649,1.93c-34.067,96.106-20.533,178.459-2.579,228.052,19.463,53.759,47.365,85.186,47.637,85.5Z" transform="translate(-94.879 -85.446)" fill="#444053"/>
    <path id="Path_743" data-name="Path 743" d="M693.378,670.36s-19.884,24.27-4.1,60.96L530.523,800.174l-15.236,3.193-7.017-30.7,4.693-38.742V712.751Z" transform="translate(-140.15 -120.463)" fill="#d5d6db"/>
    <path id="Path_744" data-name="Path 744" d="M59.16,603.448,278.9,563.39l291.161,46.382L389.212,674.881Z" transform="translate(-7.269 -69.235)" fill="#b97ebb"/>
    <path id="Path_745" data-name="Path 745" d="M59.16,603.448,278.9,563.39l291.161,46.382L389.212,674.881Z" transform="translate(-7.269 -69.235)" fill="#b97ebb"/>
    <path id="Path_746" data-name="Path 746" d="M146.581,652.47s-20.551,38.935,3.131,74.9l325.851,70.608s-20.226-31.015,1.044-74.064Z" transform="translate(-94.691 -118.265)" fill="#b97ebb"/>
    <path id="Path_747" data-name="Path 747" d="M146.581,652.47s-20.551,38.935,3.131,74.9l325.851,70.608s-20.226-31.015,1.044-74.064Z" transform="translate(-94.691 -118.265)" opacity="0.1"/>
    <path id="Path_748" data-name="Path 748" d="M158.079,667.86s-11.745,28.489,0,46.926" transform="translate(-96.478 -120.156)" opacity="0.1"/>
    <path id="Path_749" data-name="Path 749" d="M477.161,807.485,659.076,729.86s10.175,2.193,3.6,9.648-182,75.433-182,75.433L151.31,736.877Z" transform="translate(-96.288 -127.775)" fill="#b97ebb"/>
    <path id="Path_750" data-name="Path 750" d="M477.161,807.485,659.076,729.86s10.175,2.193,3.6,9.648-182,75.433-182,75.433L151.31,736.877Z" transform="translate(-96.288 -127.775)" opacity="0.1"/>
    <path id="Path_751" data-name="Path 751" d="M504.718,742.86s-17.542,21.051,0,52.627" transform="translate(-138.756 -129.372)" opacity="0.1"/>
    <rect id="Rectangle_1542" data-name="Rectangle 1542" width="82.949" height="0.877" transform="translate(372.207 639.382) rotate(-18.45)" opacity="0.1"/>
    <rect id="Rectangle_1543" data-name="Rectangle 1543" width="101.071" height="0.877" transform="translate(372.178 646.444) rotate(-20.82)" opacity="0.1"/>
    <rect id="Rectangle_1544" data-name="Rectangle 1544" width="117.148" height="0.877" transform="translate(372.706 654.768) rotate(-22.26)" opacity="0.1"/>
    <rect id="Rectangle_1545" data-name="Rectangle 1545" width="134.849" height="0.877" transform="translate(373.97 662.108) rotate(-24.31)" opacity="0.1"/>
    <rect id="Rectangle_1546" data-name="Rectangle 1546" width="147.488" height="0.877" transform="matrix(0.916, -0.401, 0.401, 0.916, 374.945, 665.68)" opacity="0.1"/>
    <rect id="Rectangle_1547" data-name="Rectangle 1547" width="176.495" height="0.877" transform="translate(376.985 671.679) rotate(-23.36)" opacity="0.1"/>
    <path id="Path_752" data-name="Path 752" d="M152.23,609.393,306.6,576.94l94.045,17.981-126.5,40.786Z" transform="translate(-18.706 -70.9)" fill="#fff" opacity="0.3"/>
    <path id="Path_753" data-name="Path 753" d="M704.871,659.69s7.982,3.219,3.3,8.192S524,724.8,524,724.8Z" transform="translate(-142.083 -119.152)" fill="#b97ebb"/>
    <path id="Path_754" data-name="Path 754" d="M792.669,574.18s-19.876,24.261-4.087,60.96L629.823,703.994l-15.236,3.21-7.017-30.7,4.763-38.734v-21.2Z" transform="translate(-152.352 -108.645)" fill="#d5d6db"/>
    <path id="Path_755" data-name="Path 755" d="M158.46,507.259,378.188,467.21l291.17,46.382L488.512,578.7Z" transform="translate(-19.471 -57.416)" fill="#3a3768"/>
    <path id="Path_756" data-name="Path 756" d="M245.84,556.29s-20.56,38.935,3.123,74.9L574.814,701.8s-20.218-31.041,1.079-74.073Z" transform="translate(-106.887 -106.447)" fill="#3a3768"/>
    <path id="Path_757" data-name="Path 757" d="M245.84,556.29s-20.56,38.935,3.123,74.9L574.814,701.8s-20.218-31.041,1.079-74.073L472.848,605.418Z" transform="translate(-106.887 -106.447)" opacity="0.1"/>
    <path id="Path_758" data-name="Path 758" d="M257.369,571.68s-11.736,28.48,0,46.926" transform="translate(-108.679 -108.338)" opacity="0.1"/>
    <path id="Path_759" data-name="Path 759" d="M576.451,711.305,758.375,633.68s10.166,2.193,3.587,9.648-182,75.433-182,75.433L250.6,640.7Z" transform="translate(-108.489 -115.956)" fill="#3a3768"/>
    <path id="Path_760" data-name="Path 760" d="M576.451,711.305,758.375,633.68s10.166,2.193,3.587,9.648-182,75.433-182,75.433L250.6,640.7Z" transform="translate(-108.489 -115.956)" opacity="0.1"/>
    <path id="Path_761" data-name="Path 761" d="M604.008,646.68s-17.542,21.051,0,52.627" transform="translate(-150.956 -117.554)" opacity="0.1"/>
    <rect id="Rectangle_1548" data-name="Rectangle 1548" width="82.949" height="0.877" transform="translate(459.303 555.03) rotate(-18.45)" opacity="0.1"/>
    <rect id="Rectangle_1549" data-name="Rectangle 1549" width="101.071" height="0.877" transform="translate(459.285 562.088) rotate(-20.82)" opacity="0.1"/>
    <rect id="Rectangle_1550" data-name="Rectangle 1550" width="117.148" height="0.877" transform="translate(459.8 570.4) rotate(-22.26)" opacity="0.1"/>
    <rect id="Rectangle_1551" data-name="Rectangle 1551" width="134.849" height="0.877" transform="translate(461.075 577.741) rotate(-24.31)" opacity="0.1"/>
    <rect id="Rectangle_1552" data-name="Rectangle 1552" width="147.488" height="0.877" transform="matrix(0.916, -0.401, 0.401, 0.916, 462.037, 581.302)" opacity="0.1"/>
    <rect id="Rectangle_1553" data-name="Rectangle 1553" width="176.495" height="0.877" transform="translate(280.097 587.301) rotate(-23.36)" opacity="0.1"/>
    <path id="Path_762" data-name="Path 762" d="M251.53,513.214,405.9,480.76l94.045,17.981-126.5,40.786Z" transform="translate(-30.907 -59.081)" fill="#fff" opacity="0.45"/>
    <path id="Path_763" data-name="Path 763" d="M804.175,563.51s7.973,3.219,3.3,8.184S623.33,628.61,623.33,628.61Z" transform="translate(-341.748 -107.334)" fill="#3a3768"/>
    <path id="Path_764" data-name="Path 764" d="M802.073,464.15s-19.884,43.567-4.1,80.257L639.218,593.964l-15.2,3.219L617,566.484l4.693-38.742v-21.2Z" transform="translate(-338.716 -95.125)" fill="#d5d6db"/>
    <path id="Path_765" data-name="Path 765" d="M167.89,397.238,387.627,357.18,678.8,403.562,497.942,468.671Z" transform="translate(-20.63 -43.896)" fill="#b97ebb"/>
    <path id="Path_766" data-name="Path 766" d="M255.308,446.26s-20.586,38.935,3.1,74.9l325.851,70.608s-20.226-31.041,1.07-74.064Z" transform="translate(-108.048 -92.927)" fill="#b97ebb"/>
    <path id="Path_767" data-name="Path 767" d="M255.308,446.26s-20.586,38.935,3.1,74.9l325.851,70.608s-20.226-31.041,1.07-74.064Z" transform="translate(-108.048 -92.927)" opacity="0.1"/>
    <path id="Path_768" data-name="Path 768" d="M266.809,461.65s-11.745,28.489,0,46.926" transform="translate(-109.839 -94.818)" opacity="0.1"/>
    <path id="Path_769" data-name="Path 769" d="M585.891,602.258,767.806,543.93s10.175,2.193,3.6,9.648-182,56.136-182,56.136L260.04,531.65Z" transform="translate(-109.649 -103.419)" fill="#b97ebb"/>
    <path id="Path_770" data-name="Path 770" d="M585.891,602.258,767.806,543.93s10.175,2.193,3.6,9.648-182,56.136-182,56.136L260.04,531.65Z" transform="translate(-109.649 -103.419)" opacity="0.1"/>
    <path id="Path_771" data-name="Path 771" d="M613.448,536.65s-17.542,21.051,0,52.627" transform="translate(-152.116 -104.033)" opacity="0.1"/>
    <rect id="Rectangle_1554" data-name="Rectangle 1554" width="82.949" height="0.877" transform="translate(467.586 458.518) rotate(-18.45)" opacity="0.1"/>
    <rect id="Rectangle_1555" data-name="Rectangle 1555" width="101.071" height="0.877" transform="translate(467.562 465.581) rotate(-20.82)" opacity="0.1"/>
    <rect id="Rectangle_1556" data-name="Rectangle 1556" width="117.148" height="0.877" transform="translate(468.068 473.897) rotate(-22.26)" opacity="0.1"/>
    <rect id="Rectangle_1557" data-name="Rectangle 1557" width="134.849" height="0.877" transform="translate(469.356 481.231) rotate(-24.31)" opacity="0.1"/>
    <rect id="Rectangle_1558" data-name="Rectangle 1558" width="147.488" height="0.877" transform="matrix(0.916, -0.401, 0.401, 0.916, 470.322, 484.8)" opacity="0.1"/>
    <rect id="Rectangle_1559" data-name="Rectangle 1559" width="176.495" height="0.877" transform="translate(285.096 490.804) rotate(-23.36)" opacity="0.1"/>
    <path id="Path_772" data-name="Path 772" d="M260.96,403.184,415.334,370.73l94.045,17.981L382.88,429.5Z" transform="translate(-32.066 -45.561)" fill="#fff" opacity="0.3"/>
    <path id="Path_773" data-name="Path 773" d="M813.605,453.48s7.982,3.219,3.3,8.192S632.76,518.589,632.76,518.589Z" transform="translate(-346.213 -93.814)" fill="#b97ebb"/>
    <path id="Path_774" data-name="Path 774" d="M394.832,149.914S361.5,147.905,365.4,171.289a5.7,5.7,0,0,0,2.965,6.008s.061-1.754,3.421-1.149a14.956,14.956,0,0,0,3.631.175,7.561,7.561,0,0,0,4.429-1.824h0s9.376-3.877,13.025-19.209c0,0,2.7-3.342,2.631-4.2l-5.649,2.4s1.921,4.061.412,7.438c0,0-.184-7.289-1.272-7.122-.219,0-2.921,1.412-2.921,1.412s3.307,7.078.807,12.218c0,0,.947-8.719-1.842-11.71l-3.965,2.316s3.868,7.306,1.246,13.271c0,0,.675-9.148-2.079-12.71l-3.6,2.807s3.64,7.2,1.421,12.148c0,0-.289-10.648-2.193-11.455,0,0-3.149,2.772-3.623,3.912,0,0,2.491,5.263.939,7.991,0,0-.939-7.1-1.754-7.131,0,0-3.131,4.7-3.456,7.894a17.069,17.069,0,0,1,2.693-8.368,9.394,9.394,0,0,0-4.789,2.482s.482-3.324,5.57-3.614c0,0,2.588-3.57,3.28-3.78,0,0-5.061-.43-8.122.93,0,0,2.7-3.131,9.043-1.754l3.508-2.895s-6.649-.877-9.473.1c0,0,3.254-2.772,10.429-.754l3.868-2.307s-5.675-1.219-9.052-.781c0,0,3.561-1.921,10.183.158l2.754-1.237s-4.149-.816-5.368-.947-1.281-.465-1.281-.465a14.481,14.481,0,0,1,7.806.877S394.946,150.282,394.832,149.914Z" transform="translate(-122.556 -56.507)" fill="#b97ebb"/>
    <path id="Path_775" data-name="Path 775" d="M929.432,259.494S896.1,257.485,900,280.869a5.7,5.7,0,0,0,2.965,6.008s.061-1.754,3.421-1.149a15.455,15.455,0,0,0,3.631.175,7.535,7.535,0,0,0,4.386-1.824h0s9.385-3.877,13.025-19.209c0,0,2.7-3.342,2.631-4.2l-5.631,2.4s1.921,4.061.412,7.438c0,0-.184-7.289-1.263-7.122-.219,0-2.93,1.412-2.93,1.412s3.307,7.078.816,12.218c0,0,.947-8.719-1.851-11.71l-3.965,2.316s3.868,7.306,1.246,13.271c0,0,.675-9.148-2.079-12.71l-3.587,2.807s3.631,7.2,1.412,12.148c0,0-.289-10.648-2.193-11.455,0,0-3.14,2.772-3.622,3.912,0,0,2.491,5.263.947,7.991,0,0-.947-7.1-1.754-7.131,0,0-3.131,4.7-3.456,7.894a17.015,17.015,0,0,1,2.7-8.368,9.437,9.437,0,0,0-4.8,2.482s.491-3.324,5.57-3.614c0,0,2.588-3.57,3.28-3.789,0,0-5.052-.421-8.122.939,0,0,2.7-3.131,9.043-1.754l3.508-2.894s-6.657-.877-9.473.1c0,0,3.245-2.772,10.429-.754l3.859-2.307s-5.675-1.219-9.052-.781c0,0,3.561-1.921,10.183.158l2.763-1.237s-4.158-.816-5.377-.947-1.281-.465-1.281-.465a14.376,14.376,0,0,1,7.806.877S929.537,259.862,929.432,259.494Z" transform="translate(-457.971 -69.972)" fill="#b97ebb" opacity="0.1"/>
    <path id="Path_776" data-name="Path 776" d="M457.842,311.9s-14.525-30.112-33.015-15.271a5.7,5.7,0,0,0-3.8,5.517s1.535-.8,2.631,2.43a15.542,15.542,0,0,0,1.614,3.245,7.57,7.57,0,0,0,3.763,2.982h0s7.956,6.3,23.121,2c0,0,4.237.728,4.929.219l-4.842-3.745s-2.631,3.658-6.3,3.982c0,0,6.28-3.71,5.6-4.57-.14-.175-2.631-1.868-2.631-1.868s-4.57,6.342-10.271,6.666c0,0,8.07-3.421,9.315-7.324l-3.947-2.333s-4.5,6.947-10.982,7.561c0,0,8.315-3.868,10.078-8.008l-4.193-1.754s-4.517,6.684-9.92,7.166c0,0,9.157-5.447,8.929-7.508,0,0-3.956-1.386-5.184-1.254,0,0-3.351,4.728-6.508,4.728,0,0,5.728-4.289,5.377-4.982,0,0-5.631-.439-8.6.877a17.077,17.077,0,0,1,8.622-1.754,9.447,9.447,0,0,0-4.508-2.973s3.14-1.193,5.868,3.1c0,0,4.386.518,4.9,1.017,0,0-2.1-4.614-4.772-6.622,0,0,4.052.816,5.9,7.017l4.254,1.684s-2.447-6.245-4.7-8.219c0,0,4,1.482,5.745,8.771l3.894,2.245s-1.693-5.552-3.728-8.28c0,0,3.412,2.175,4.824,8.964l2.43,1.807s-1.316-4.026-1.754-5.149-.219-1.351-.219-1.351a14.394,14.394,0,0,1,3.052,7.236S457.526,312.168,457.842,311.9Z" transform="translate(-129.43 -74.036)" fill="#b97ebb" opacity="0.1"/>
    <path id="Path_777" data-name="Path 777" d="M841.622,208.285s-14.516-30.112-33.015-15.271a5.708,5.708,0,0,0-3.8,5.517s1.544-.789,2.631,2.43a15.21,15.21,0,0,0,1.623,3.254,7.526,7.526,0,0,0,3.754,2.973h0s7.964,6.3,23.121,2.009c0,0,4.237.719,4.938.211l-4.815-3.754s-2.631,3.666-6.289,3.991c0,0,6.271-3.719,5.6-4.579-.14-.175-2.631-1.868-2.631-1.868s-4.561,6.342-10.271,6.666c0,0,8.078-3.421,9.324-7.315l-4.008-2.316s-4.491,6.938-10.982,7.561c0,0,8.315-3.877,10.087-8.017l-4.2-1.754s-4.517,6.692-9.911,7.166c0,0,9.148-5.447,8.92-7.5,0,0-3.947-1.395-5.175-1.254,0,0-3.351,4.719-6.517,4.719,0,0,5.736-4.289,5.386-4.982,0,0-5.631-.439-8.6.877a17.068,17.068,0,0,1,8.622-1.754,9.393,9.393,0,0,0-4.5-2.973s3.14-1.193,5.868,3.1c0,0,4.386.526,4.9,1.026,0,0-2.1-4.622-4.78-6.631,0,0,4.052.824,5.9,7.061l4.263,1.684s-2.447-6.254-4.7-8.227c0,0,4,1.482,5.736,8.771l3.9,2.245s-1.7-5.543-3.737-8.28c0,0,3.421,2.175,4.824,8.964l2.43,1.807s-1.307-4.026-1.754-5.149-.219-1.342-.219-1.342a14.429,14.429,0,0,1,3.044,7.236S841.35,208.565,841.622,208.285Z" transform="translate(-415.271 -61.303)" fill="#b97ebb" opacity="0.1"/>
    <path id="Path_778" data-name="Path 778" d="M894.508,378.094s-14.516-30.12-33.041-15.279a5.708,5.708,0,0,0-3.8,5.517s1.544-.789,2.631,2.43a15.2,15.2,0,0,0,1.614,3.254,7.526,7.526,0,0,0,3.754,2.973h0S873.633,383.3,888.8,379c0,0,4.228.728,4.929.211l-4.842-3.745s-2.631,3.666-6.3,3.991c0,0,6.271-3.719,5.6-4.579-.14-.175-2.631-1.868-2.631-1.868s-4.561,6.342-10.271,6.675c0,0,8.078-3.43,9.324-7.324l-3.956-2.333s-4.491,6.947-10.982,7.561c0,0,8.315-3.877,10.087-8.017l-4.2-1.754s-4.517,6.684-9.911,7.166c0,0,9.157-5.447,8.929-7.508,0,0-3.956-1.395-5.184-1.254,0,0-3.351,4.719-6.517,4.719,0,0,5.736-4.289,5.386-4.982,0,0-5.631-.439-8.6.877a17.121,17.121,0,0,1,8.631-1.754,9.376,9.376,0,0,0-4.508-2.974s3.14-1.2,5.868,3.1c0,0,4.386.518,4.9,1.017,0,0-2.1-4.614-4.772-6.631,0,0,4.052.824,5.9,7.061l4.254,1.684s-2.447-6.254-4.7-8.219c0,0,4,1.474,5.736,8.771l3.9,2.237s-1.7-5.543-3.737-8.28c0,0,3.421,2.175,4.833,8.973l2.43,1.754s-1.316-4.026-1.754-5.149-.219-1.342-.219-1.342a14.34,14.34,0,0,1,3.044,7.236S894.236,378.357,894.508,378.094Z" transform="translate(-439.385 -82.168)" fill="#b97ebb" opacity="0.1"/>
    <ellipse id="Ellipse_226" data-name="Ellipse 226" cx="20.165" cy="2.254" rx="20.165" ry="2.254" transform="translate(156.97 683.289)" fill="#b97ebb" opacity="0.1"/>
    <ellipse id="Ellipse_227" data-name="Ellipse 227" cx="20.165" cy="2.254" rx="20.165" ry="2.254" transform="translate(24.779 644.977)" fill="#b97ebb" opacity="0.1"/>
    <ellipse id="Ellipse_228" data-name="Ellipse 228" cx="20.165" cy="2.254" rx="20.165" ry="2.254" transform="translate(257.734 708.735)" fill="#b97ebb" opacity="0.1"/>
    <ellipse id="Ellipse_229" data-name="Ellipse 229" cx="20.165" cy="2.254" rx="20.165" ry="2.254" transform="translate(479.643 653.309)" fill="#b97ebb" opacity="0.1"/>
    <ellipse id="Ellipse_230" data-name="Ellipse 230" cx="20.165" cy="2.254" rx="20.165" ry="2.254" transform="translate(375.67 642.372)" fill="#b97ebb" opacity="0.1"/>
    <ellipse id="Ellipse_231" data-name="Ellipse 231" cx="23.849" cy="4.096" rx="23.849" ry="4.096" transform="translate(494.057 692.034)" fill="#b97ebb" opacity="0.1"/>
    <path id="Path_779" data-name="Path 779" d="M688.232,790.14s-33.208,17.157-16.051,37.365c0,0,1.614,4.386,6.28,4.079,0,0-.93-1.7,2.631-3.061a17.111,17.111,0,0,0,3.587-1.9,8.428,8.428,0,0,0,3.21-4.289h0s6.789-9.087,1.526-25.9c0,0,.684-4.754.088-5.526l-4.035,5.535s4.166,2.8,4.649,6.912c0,0-4.386-6.9-5.263-6.14-.193.158-2,3.026-2,3.026s7.228,4.9,7.763,11.271c0,0-4.07-8.92-8.464-10.192l-2.517,4.491s7.894,4.807,8.771,12.034c0,0-4.587-9.166-9.271-11.017l-1.851,4.745s7.613,4.842,8.315,10.859c0,0-6.368-10.061-8.657-9.745,0,0-1.438,4.456-1.245,5.833,0,0,5.377,3.6,5.473,7.131,0,0-4.965-6.271-5.728-5.859,0,0-.316,6.306,1.21,9.587a18.925,18.925,0,0,1-2.2-9.587,10.525,10.525,0,0,0-3.184,5.122s-1.43-3.465,3.28-6.657c0,0,.447-4.9.991-5.508,0,0-5.1,2.491-7.263,5.543,0,0,.8-4.552,7.71-6.815l1.754-4.807s-6.912,2.93-9.043,5.508c0,0,1.535-4.517,9.587-6.684l2.386-4.386s-6.14,2.07-9.14,4.386c0,0,2.324-3.886,9.876-5.675l1.938-2.763s-4.456,1.588-5.7,2.158-1.491.289-1.491.289a16.129,16.129,0,0,1,7.99-3.631S688.539,790.438,688.232,790.14Z" transform="translate(-159.687 -135.182)" fill="#b97ebb"/>
    <path id="Path_780" data-name="Path 780" d="M761.863,374.35c-5.736-15.586-37.313-17.051-51.013-13.078-9.736,2.833-30.261,6.026-41.225,7.631l-.71-.675c1.421-.421,1.456-1.456,1.281-2.991a46.8,46.8,0,0,1,.088-6.07c6.719,2.088,12.7-2.851,12.7-2.851h0c7.894-3.508,5.771-18.525,7.28-22.63,1.131-3.07,2.351-21.156,2.894-30.173h.114l.061-3.026c.079-1.307.114-2.07.114-2.07s.772-22.051,2.28-26.515c1.4-4.1,2.544-24.787,2.719-28.068v-.43l-.114-1.912c.079-1.395.114-2.947.105-4.579,0-7.5-.781-16.946-.877-18.472v-.8c.061-3.2-.342-19.235-13.981-25.3-5.026-2.245-11.069-4.921-16.92-7.526-1.509-13.025-4.956-25.98-4.658-39.1,0-1.974.175-3.947.368-5.912,0,.57-.061,1.149-.07,1.754v3.824c.518-16.411,6.719-32.91,6.14-48.97-.053,1.57-.167,3.149-.316,4.728a50.987,50.987,0,0,0-1.684-16.13,9.544,9.544,0,0,0-2.754-5,11.341,11.341,0,0,0-4.807-1.9,96.668,96.668,0,0,0-12.622-2.351,19.49,19.49,0,0,0-2.842-5.517c-8.894-12.21-22.068-23.682-37.646-26.314-7.815-1.316-16.806-.219-22.121,5.368a16.588,16.588,0,0,0-1.561,1.579c-2.859,3.412-4.087,7.894-7.017,11.3-.193.228-.412.439-.623.658-5.736,5.131-14.674,6.2-21.051,10.806a25.272,25.272,0,0,0-3.149,2.745,53.394,53.394,0,0,0-6.877,8.359c-2.868,4.035-5.815,8.236-6.728,13.052-1.833,9.648,4.736,18.8,5.956,28.506,2.719,21.726-21.323,41.005-16.771,62.442a28.594,28.594,0,0,0,7.736,13.885c-9.376,8.491-17.358,16.727-17.358,16.727v.491h-1.482l.149,1.754h-.149l.816,9.517-.816,13.859v1.307h.053c.272,5.079,1.351,23.34,2.631,27.191,1.509,4.465,2.272,26.515,2.272,26.515s1.667,31.164,3.193,35.287-.64,19.095,7.28,22.63h0a16.666,16.666,0,0,0,7.956,3.3c-.4,3.28-.149,5.657,1.158,6.4a3.824,3.824,0,0,0,1.842.526,19.547,19.547,0,0,0-1.43,2.5,37.155,37.155,0,0,1-9.192-2.166c-8.508-3.508-36.743-11.4-44.944-5.85S457.607,373.2,466.72,395.551s13.359,22.91,13.359,22.91a32.452,32.452,0,0,1,7.289,7.324C490.1,429.9,515.6,439.31,521.979,439.31a62.433,62.433,0,0,1,8.113.4s-6.921,6.07-6,9.6-2.105,31.752-2.105,31.752,7.017,7.07,10.017-2.2l.105.14c.561.763,3.6,4.21,9.306-.14a52.173,52.173,0,0,1,7.421-4.7l27.647-3.912a78.251,78.251,0,0,1,8.657-.061c4.386.36,8.692-2.237,11.4-4.245,5.728,2.175,12.166,4.552,15.227,5.421,6.21,1.754,34.752,9.411,41.427,7.017a9.272,9.272,0,0,0,3.6-2.561l6.368.2-2.982.6s5.807.1,13.7.2l-.333.193,9.9-.088c14.49.132,30.769.175,32.91-.307,3.351-.746,20.761-.219,25.893,0h1.43s19.13-3.815,11.236-23.226c-6.07-14.911-24.726-19.244-33.006-20.437,2.333-.465,4.342-.824,5.675-1.035,5.78-.877,17.007-6.14,17.92-7.938s10.324-7.017,12.753-9.99S767.626,389.937,761.863,374.35ZM603.411,417.97l-.939.307-.631.211-1.21,1.193c-.965-.649-2-1.333-3.079-2.035C599.455,417.759,601.411,417.873,603.411,417.97Zm83.6,24.717Z" transform="translate(-134.756 -43.428)" fill="url(#linear-gradient-2)"/>
    <path id="Path_781" data-name="Path 781" d="M686.65,349.846s13.42,35.085,21.051,31.576,5.561-18.42,7.017-22.507,3.07-35.085,3.07-35.085.737-21.928,2.193-26.366c1.351-4.079,2.447-24.647,2.631-27.884v-.43l-1.447-25.437-8.192-2.044-19,7.017-2.631,15.025-1.026,5.868-.439,2.5Z" transform="translate(-162.069 -67.787)" fill="#be6f72"/>
    <path id="Path_782" data-name="Path 782" d="M691.69,358.3s12.806,10.482,16.665,11.4,6.228,9.1,6.228,9.1" transform="translate(-162.689 -82.118)" opacity="0.1"/>
    <path id="Path_783" data-name="Path 783" d="M561.962,351.6s-13.42,35.085-21.051,31.576-5.561-18.42-7.017-22.507-3.07-35.085-3.07-35.085-.737-21.928-2.193-26.366c-1.351-4.079-2.447-24.647-2.631-27.884v-.43l1.456-25.437,8.192-2.044,19,7.017,2.631,15.025,1.026,5.868.439,2.5Z" transform="translate(-142.329 -68.002)" fill="#be6f72"/>
    <rect id="Rectangle_1560" data-name="Rectangle 1560" width="29.954" height="46.689" transform="translate(477.067 95.837)" fill="#3e373a"/>
    <rect id="Rectangle_1561" data-name="Rectangle 1561" width="29.954" height="46.689" transform="translate(477.067 95.837)" opacity="0.1"/>
    <path id="Path_784" data-name="Path 784" d="M559.98,406.2s-10.236,11.253-6.438,13.3,28.366,40.348,28.366,40.348,80.7,9.938,95.913-4.973,14.911-41.549,14.911-41.549-12.227,2.631-13.56,1.2-8.657-8.324-8.657-8.324S567,399.919,559.98,406.2Z" transform="translate(-145.609 -87.661)" fill="#4b4b5b"/>
    <path id="Path_785" data-name="Path 785" d="M559.98,406.2s-10.236,11.253-6.438,13.3,28.366,40.348,28.366,40.348,80.7,9.938,95.913-4.973,14.911-41.549,14.911-41.549-12.227,2.631-13.56,1.2-8.657-8.324-8.657-8.324S567,399.919,559.98,406.2Z" transform="translate(-145.609 -87.661)" opacity="0.02"/>
    <path id="Path_786" data-name="Path 786" d="M702.172,233.111l-26.314,21.051-7.956.579-2.921.211-49.057,3.6-50.873-3.719-7.57-.553-9.648-.7-20.174-19.3s14.28-15.3,26.787-25.621c4.929-4.079,9.587-7.377,12.981-8.675l.579-.2a14.437,14.437,0,0,0,5.561-3.877c9.876-10.183,19.007-35.313,19.007-35.313s43.567-22.507,38.3,7.017,19.586,22.226,19.586,22.226l8.192,3.737,3.237,1.482,8.254,3.78,18.621,8.543C703.383,214.1,702.172,233.111,702.172,233.111Z" transform="translate(-142.533 -56.816)" fill="#be6f72"/>
    <circle id="Ellipse_232" data-name="Ellipse 232" cx="39.181" cy="39.181" r="39.181" transform="translate(432.167 49.454)" opacity="0.1"/>
    <path id="Path_787" data-name="Path 787" d="M702.03,267.653H526v-.43l1.456-25.437s14.28-15.3,26.787-25.621l110.517-4.386,5.14-5.421,18.621,8.543c14.622,6.719,13.446,25.726,13.446,25.726S703.968,262.654,702.03,267.653Z" transform="translate(-142.329 -63.448)" opacity="0.1"/>
    <path id="Path_788" data-name="Path 788" d="M702.03,266.653H526v-.43l1.456-25.437s14.28-15.3,26.787-25.621l110.517-4.386,5.14-5.421,18.621,8.543c14.622,6.719,13.446,25.726,13.446,25.726S703.968,261.654,702.03,266.653Z" transform="translate(-142.329 -63.325)" fill="#e7c7ca"/>
    <path id="Path_789" data-name="Path 789" d="M592.254,192.846s27.77,35.383,64.758-.728,4.1,80.546,4.1,80.546l-79.818,9.473Z" transform="translate(-149.123 -60.846)" opacity="0.1"/>
    <path id="Path_790" data-name="Path 790" d="M592.254,194.846s27.77,35.383,64.758-.728,4.1,80.546,4.1,80.546l-79.818,9.473Z" transform="translate(-149.123 -61.092)" fill="#e7c7ca"/>
    <path id="Path_791" data-name="Path 791" d="M664.785,202.8l2.938,44.812,3.149,14.911,2.4,11.4s6.14,87.712,4.386,92.1.877,7.894,1.245,10.227-.368,8.192-.079,10.824,0,3.8-6.719,2.859-16.086-2.57-16.086-2.57-23.682,1.754-31.866-1.167-23.682-2.93-23.682-2.93-23.393.588-30.989-.289-11.7,9.359-16.665,6.429,5.842-31.278,9.35-39.47S557.5,320.99,557.5,320.99l10.525-58.39,2.342-13.236V207.753l.579-.2a14.437,14.437,0,0,0,5.561-3.877l2.631,41.874,82.45,2.93V201.35" transform="translate(-145.467 -62.833)" opacity="0.1"/>
    <path id="Path_792" data-name="Path 792" d="M664.785,200.8l2.938,44.812,3.149,14.911,2.4,11.4s6.14,87.712,4.386,92.1.877,7.894,1.245,10.227-.368,8.192-.079,10.824,0,3.8-6.719,2.859-16.086-2.57-16.086-2.57-23.682,1.754-31.866-1.167-23.682-2.93-23.682-2.93-23.393.588-30.989-.289-11.7,9.359-16.665,6.429,5.842-31.278,9.35-39.471S557.5,318.99,557.5,318.99l10.525-58.39,2.342-13.236V205.753l.579-.2a14.437,14.437,0,0,0,5.561-3.877l2.631,41.874,82.45,2.93V199.35" transform="translate(-145.467 -62.587)" fill="#e7c7ca"/>
    <path id="Path_793" data-name="Path 793" d="M672.548,88.59a9.665,9.665,0,0,0-2.631-4.965,10.771,10.771,0,0,0-4.631-1.895A91.5,91.5,0,0,0,653.111,79.4a19.486,19.486,0,0,0-2.631-5.464c-8.6-12.139-21.314-23.586-36.278-26.173-7.833-1.36-16.911-.14-21.928,6.035-2.754,3.394-3.938,7.894-6.719,11.227-5.359,6.473-15.034,7.271-21.788,12.28-3.6,2.631-6.219,6.447-8.771,10.148-2.763,4.008-5.6,8.184-6.482,12.973-1.754,9.569,4.57,18.691,5.736,28.349,2.631,21.6-20.525,40.769-16.148,62.083,2.552,12.429,14.034,21.182,25.91,25.621,4.184,1.57,8.964,3.131,10.92,7.149.877,1.754,1.026,3.78,1.851,5.552,2.772,5.912,11.885,6.14,16.779,1.833s6.438-11.271,7.017-17.77c2.351-28.384-9.017-56.425-7.692-84.879.395-8.6,2.816-18.367,10.526-22.261,10.376-5.263,22.858,3.508,34.278,1.833a68,68,0,0,1,3.28,41.5c-1.816,7.57-4.956,14.911-5.184,22.717-.342,11.885,6.07,22.744,11.613,33.252a17.691,17.691,0,0,1,2.342,6.412,15.453,15.453,0,0,1-1.254,6.71c-3.131,8.429-8.534,16.253-9.148,25.226a4.079,4.079,0,0,0,.658,3,3.772,3.772,0,0,0,2.263,1.018c9.473,1.623,17.665-6.771,22.288-15.2a71.258,71.258,0,0,0,8.789-30.278c.956-17.858-5.447-35.427-5.052-53.3C668.741,128.657,677.925,108.194,672.548,88.59Z" transform="translate(-143.748 -43.898)" opacity="0.1"/>
    <path id="Path_794" data-name="Path 794" d="M673.548,87.59a9.665,9.665,0,0,0-2.631-4.965,10.771,10.771,0,0,0-4.631-1.895A91.5,91.5,0,0,0,654.111,78.4a19.488,19.488,0,0,0-2.631-5.464c-8.6-12.139-21.314-23.586-36.278-26.173-7.833-1.36-16.911-.14-21.928,6.035-2.754,3.394-3.938,7.894-6.719,11.227-5.359,6.473-15.034,7.271-21.788,12.28-3.6,2.631-6.219,6.447-8.771,10.148-2.763,4.008-5.6,8.184-6.482,12.973-1.754,9.569,4.57,18.691,5.736,28.349,2.631,21.6-20.525,40.769-16.148,62.083,2.552,12.429,14.034,21.182,25.91,25.621,4.184,1.57,8.964,3.131,10.92,7.149.877,1.754,1.026,3.78,1.851,5.552,2.772,5.912,11.885,6.14,16.779,1.833s6.438-11.271,7.017-17.77c2.351-28.384-9.017-56.425-7.692-84.879.395-8.6,2.816-18.367,10.526-22.261,10.376-5.263,22.858,3.508,34.278,1.833a68,68,0,0,1,3.28,41.5c-1.816,7.57-4.956,14.911-5.184,22.717-.342,11.885,6.07,22.744,11.613,33.252a17.693,17.693,0,0,1,2.342,6.412,15.455,15.455,0,0,1-1.254,6.71c-3.131,8.429-8.534,16.253-9.148,25.226a4.079,4.079,0,0,0,.658,3,3.772,3.772,0,0,0,2.263,1.017c9.473,1.623,17.665-6.771,22.288-15.2a71.257,71.257,0,0,0,8.789-30.278c.956-17.858-5.447-35.427-5.052-53.3C669.741,127.657,678.925,107.194,673.548,87.59Z" transform="translate(-143.871 -43.776)" fill="#3e373a"/>
    <path id="Path_795" data-name="Path 795" d="M581.79,489.271l34.8,1.114-4.991-25.8-26.656,2.535Z" transform="translate(-71.489 -57.093)" fill="#c3c7d9"/>
    <path id="Path_796" data-name="Path 796" d="M770.64,458.8c-2.342,2.921-11.4,8.184-12.28,9.938s-11.692,7.017-17.253,7.894-23.095,4.684-26.314,6.728c-2.307,1.474-20.823,6.14-32.989,8.727a93.626,93.626,0,0,1-9.99,1.8c-5.263.289-62.855-19.3-62.855-19.3l11.1-11.4.614-.211c3.14-1.061,17.648-5.964,25.7-8.3,9.07-2.631,19.595-13.446,19.595-13.446s15.49-5.263,17.542-5.85-5.263-20.463-5.263-20.463,33.62-4.666,46.777-8.622,43.567-2.491,49.119,13.008S773.017,455.883,770.64,458.8Z" transform="translate(-152.523 -87.787)" fill="#4b4b5b"/>
    <path id="Path_797" data-name="Path 797" d="M608.217,518.409s-6.719,7.017-13.446,6.438-30.252,1.754-30.252,1.754a47.162,47.162,0,0,0-11.85,6.868c-5.5,4.333-8.42.877-8.964.14l-.1-.14c-2.93,9.219-9.648,2.193-9.648,2.193s2.921-28.068,2.026-31.576,5.78-9.534,5.78-9.534l7.894-2.009,20-5.122,28.656,9.938Z" transform="translate(-143.307 -97.984)" fill="#e7c7ca"/>
    <path id="Path_798" data-name="Path 798" d="M549.625,493.26,543.7,534.327l-.1-.14c-2.93,9.219-9.648,2.193-9.648,2.193s2.921-28.068,2.026-31.576,5.78-9.534,5.78-9.534Z" transform="translate(-143.307 -98.702)" opacity="0.1"/>
    <path id="Path_799" data-name="Path 799" d="M599,360.08s15.49,5.263,28.945,0" transform="translate(-151.299 -82.337)" opacity="0.1"/>
    <path id="Path_800" data-name="Path 800" d="M659.29,371.42s6.429,3.21,11.4,0" transform="translate(-158.707 -83.73)" opacity="0.1"/>
    <path id="Path_801" data-name="Path 801" d="M659.29,379.894s10.815,1.447,12.867-1.474" transform="translate(-158.707 -84.591)" opacity="0.1"/>
    <path id="Path_802" data-name="Path 802" d="M655.29,397.89s20.314-2.631,25.358-6.14" transform="translate(-158.216 -86.229)" opacity="0.1"/>
    <path id="Path_803" data-name="Path 803" d="M584.62,391.75s11.4,6.429,19.884,6.14" transform="translate(-149.532 -86.229)" opacity="0.1"/>
    <path id="Path_804" data-name="Path 804" d="M681.8,500.292a93.639,93.639,0,0,1-9.99,1.8c-5.263.289-62.855-19.3-62.855-19.3l11.1-11.4.614-.211c1.754,1.237,3.193,2.3,4.219,3.105,4.833,3.807,9.5-1.167,11.254-1.167S653.1,485.688,653.1,485.688s14.034,3.219,16.376,6.14,10.525,2.342,11.981,4.386C681.891,496.845,681.944,498.4,681.8,500.292Z" transform="translate(-152.522 -95.989)" opacity="0.1"/>
    <path id="Path_805" data-name="Path 805" d="M556.747,416.3s-14.192.816-22.375-2.631S499,402.262,491.1,407.849s-26.9,10.525-18.13,32.752,12.867,22.805,12.867,22.805a31.665,31.665,0,0,1,7.017,7.28c2.631,4.1,27.191,13.446,33.331,13.446s16.955,0,32.155,10.525,28.945,11.7,28.945,11.7,19.3,7.894,25.3,9.648,33.462,9.35,39.9,7.017,10.525-16.964,10.525-16.964,2.921-13.157,1.456-15.2-9.648-1.465-11.982-4.386-16.376-6.14-16.376-6.14-15.165-12.578-16.92-12.578-6.421,4.965-11.253,1.167a256.733,256.733,0,0,0-30.27-19.3C566.571,443.776,556.747,416.3,556.747,416.3Z" transform="translate(-135.535 -87.969)" fill="#4b4b5b"/>
    <path id="Path_806" data-name="Path 806" d="M536.27,427.372a16.753,16.753,0,0,1,14.376,3.8c7.017,5.85,30.629,17.6,30.629,17.6" transform="translate(-143.591 -90.564)" opacity="0.1"/>
    <path id="Path_807" data-name="Path 807" d="M731.089,427s-31.287,4.736-37.129,11.166" transform="translate(-162.968 -90.56)" opacity="0.1"/>
    <path id="Path_808" data-name="Path 808" d="M766.026,531.276h-1.377c-4.947-.175-21.709-.7-24.937,0-3.8.877-54.092,0-54.092,0l9.833-2.044s-3.649-12.788-1.333-13.85c0,0-13.157-8.666-3.237-14.516s20.612-3.386,20.612-3.386l24.9-8.438,4.78-1.623s28.068,1.465,35.664,20.762S766.026,531.276,766.026,531.276Z" transform="translate(-364.691 -97.984)" fill="#e7c7ca"/>
    <path id="Path_809" data-name="Path 809" d="M773.139,531.282h-1.377c8.166-6.736,26.638-27.243-28.252-42.19l4.78-1.623s28.068,1.465,35.664,20.762S773.139,531.282,773.139,531.282Z" transform="translate(-387.71 -97.99)" opacity="0.1"/>
    <circle id="Ellipse_233" data-name="Ellipse 233" cx="1.535" cy="1.535" r="1.535" transform="translate(550.947 407.487)" fill="#4b4b5b"/>
    <circle id="Ellipse_234" data-name="Ellipse 234" cx="1.535" cy="1.535" r="1.535" transform="translate(542.027 410.022)" fill="#4b4b5b"/>
    <g id="Group_952" data-name="Group 952" transform="translate(394.918 55.156)" opacity="0.1">
      <path id="Path_810" data-name="Path 810" d="M651.744,138.386a68.056,68.056,0,0,0-5.035-28.191c-11.4,1.7-23.893-7.1-34.278-1.833-7.684,3.894-10.1,13.657-10.526,22.261-.105,2.272-.123,4.543-.079,6.815,0-.807,0-1.623.079-2.43.4-8.6,2.816-18.367,10.526-22.261,10.385-5.263,22.858,3.508,34.278,1.833a67.874,67.874,0,0,1,5.035,23.805Z" transform="translate(-546.562 -106.353)"/>
      <path id="Path_811" data-name="Path 811" d="M557.14,137.027a29.231,29.231,0,0,0-.114-5.736c-.93-7.719-5.149-15.1-5.912-22.621-.982,9.078,4.8,17.8,5.912,27.007A5.482,5.482,0,0,1,557.14,137.027Z" transform="translate(-540.319 -106.6)"/>
      <path id="Path_812" data-name="Path 812" d="M601.859,227.126c-.544,6.508-2.079,13.464-7.017,17.779s-14.034,4.079-16.779-1.833c-.877-1.754-1.009-3.8-1.859-5.552-1.947-4.017-6.736-5.578-10.92-7.149-11.885-4.447-23.349-13.157-25.9-25.621a26.921,26.921,0,0,1-.465-3.421,27.647,27.647,0,0,0,.465,7.806c2.552,12.429,14.034,21.174,25.9,25.621,4.184,1.57,8.973,3.131,10.92,7.149.877,1.754,1.026,3.78,1.859,5.552,2.763,5.912,11.876,6.14,16.779,1.833s6.429-11.271,7.017-17.779a100.222,100.222,0,0,0,.272-10.3C602.131,223.205,602.017,225.17,601.859,227.126Z" transform="translate(-538.823 -117.986)"/>
      <path id="Path_813" data-name="Path 813" d="M687.93,151.2V155c.491-16.314,6.473-32.717,5.885-48.689C693.359,121.081,688.263,136.185,687.93,151.2Z" transform="translate(-557.145 -106.31)"/>
      <path id="Path_814" data-name="Path 814" d="M664.543,227.153a11.306,11.306,0,0,0,.2-3.166,17.541,17.541,0,0,0-2.342-6.412c-5.07-9.648-10.85-19.525-11.534-30.234,0,.456-.061.877-.07,1.368-.351,11.876,6.061,22.744,11.6,33.252a21.051,21.051,0,0,1,2.14,5.193Z" transform="translate(-552.58 -116.267)"/>
      <path id="Path_815" data-name="Path 815" d="M688.9,218.014a71.371,71.371,0,0,1-8.85,30.278c-4.631,8.429-12.815,16.823-22.3,15.2a3.728,3.728,0,0,1-2.263-1.026,2.194,2.194,0,0,1-.412-.684c-.105.684-.193,1.377-.246,2.079a4.043,4.043,0,0,0,.658,2.991,3.728,3.728,0,0,0,2.263,1.026c9.482,1.623,17.665-6.771,22.3-15.2A71.373,71.373,0,0,0,688.9,222.4c.105-2.052.114-4.1.053-6.14C688.934,216.848,688.934,217.427,688.9,218.014Z" transform="translate(-553.07 -119.82)"/>
    </g>
    <path id="Path_816" data-name="Path 816" d="M695.31,517.717s22.2,9.315,36.839-11.3" transform="translate(-163.133 -100.319)" fill="none" stroke="#000" stroke-miterlimit="10" stroke-width="1" opacity="0.1"/>
    <path id="Path_817" data-name="Path 817" d="M700.29,537.11s18.13-11.789,41.225-.386" transform="translate(-163.745 -103.432)" fill="none" stroke="#000" stroke-miterlimit="10" stroke-width="1" opacity="0.1"/>
    <path id="Path_818" data-name="Path 818" d="M561.93,533.549s7.613-17.174,27.945-4.079" transform="translate(-146.744 -102.546)" fill="none" stroke="#000" stroke-miterlimit="10" stroke-width="1" opacity="0.1"/>
    <path id="Path_819" data-name="Path 819" d="M533.79,242.846l15.525-14.034s60.2-3.947,62.688,16.516c0,0,21.34-24.261,66.223-18.858l18.99,15.122-52.487,23.033-51,17.692L556.157,265.5Z" transform="translate(-143.286 -65.823)" opacity="0.1"/>
    <path id="Path_820" data-name="Path 820" d="M533.79,243.846l15.525-14.034s60.2-3.947,62.688,16.516c0,0,21.34-24.261,66.223-18.858l18.99,15.122-52.487,23.033-51,17.692L556.157,266.5Z" transform="translate(-143.286 -65.946)" fill="#d5d6db"/>
    <path id="Path_821" data-name="Path 821" d="M437.38,204.83l6.868,82.16,72.8,3.658-3.158-81.809-.061-1.377Z" transform="translate(-53.744 -25.176)" opacity="0.1"/>
    <path id="Path_822" data-name="Path 822" d="M437.38,202.83l6.868,82.16,72.8,3.658-3.158-81.809-.061-1.377Z" transform="translate(-53.744 -24.93)" fill="#b97ebb"/>
    <path id="Path_823" data-name="Path 823" d="M624.809,202.83l-75.1,11.262v82.528l73.389-10.6Z" transform="translate(-67.547 -24.93)" opacity="0.1"/>
    <path id="Path_824" data-name="Path 824" d="M624.809,200.83l-75.1,11.262v82.528l73.389-10.6Z" transform="translate(-67.547 -24.684)" fill="#b97ebb"/>
    <path id="Path_825" data-name="Path 825" d="M609.457,223.79,568.89,228.3l.886,13.823,39.655-4.333Z" transform="translate(-69.904 -27.505)" fill="#fff" opacity="0.3"/>
    <path id="Path_826" data-name="Path 826" d="M538.043,379.829l4.131,11.113s6.14,5.263,12.859,2.631,12.578-3.938,15.5-6.5,7.017-15.429,7.017-15.429,4.1-14.034,8.184-17.542,14.911-51.847,0-47.119-26.314,48.584-26.314,48.584a10.4,10.4,0,0,1-6.429,3.508c-3.8.3-11.4-.588-12.867,2.631S533.657,373.4,538.043,379.829Z" transform="translate(-143.592 -75.773)" fill="#be6f72"/>
    <path id="Path_827" data-name="Path 827" d="M635.2,258.311a25.261,25.261,0,0,1-22.025-5.491l3.166,81.8s7.456,8.07,18.858,6.228Z" transform="translate(-153.042 -69.157)" opacity="0.1"/>
    <path id="Path_828" data-name="Path 828" d="M635.2,256.311a25.261,25.261,0,0,1-22.025-5.491l3.166,81.8s7.456,8.07,18.858,6.228Z" transform="translate(-153.042 -68.911)" fill="#b97ebb"/>
    <path id="Path_829" data-name="Path 829" d="M635.2,256.311a25.261,25.261,0,0,1-22.025-5.491l3.166,81.8s7.456,8.07,18.858,6.228Z" transform="translate(-153.042 -68.911)" opacity="0.1"/>
    <path id="Path_830" data-name="Path 830" d="M640.29,245.428s30.55-9.341,38.514-8.026" transform="translate(-156.373 -67.247)" opacity="0.1"/>
    <path id="Path_831" data-name="Path 831" d="M596.489,241.166s-29.612-7.017-34.559-5.026" transform="translate(-146.744 -67.064)" opacity="0.1"/>
    <path id="Path_832" data-name="Path 832" d="M662.25,247.215s20.428-7.491,27.814-3.93" transform="translate(-159.071 -67.868)" opacity="0.1"/>
    <path id="Path_833" data-name="Path 833" d="M650.52,459.977a67.157,67.157,0,0,1,10.069-6.254c5.263-2.535,14.911-9.113,14.911-9.113" transform="translate(-157.63 -92.724)" opacity="0.1"/>
    <path id="Path_834" data-name="Path 834" d="M558.723,360.08s-12.815,10.482-16.665,11.4-6.228,9.1-6.228,9.1" transform="translate(-143.537 -82.337)" opacity="0.1"/>
    <path id="Path_835" data-name="Path 835" d="M707.575,378.053l-4.087,11.139s-6.14,5.263-12.867,2.631-12.569-3.938-15.5-6.5S668.1,369.9,668.1,369.9s-4.087-14.034-8.184-17.542-14.911-51.847,0-47.119,26.314,48.584,26.314,48.584a10.4,10.4,0,0,0,6.429,3.509c3.8.3,11.4-.588,12.867,2.631S711.96,371.65,707.575,378.053Z" transform="translate(-157.847 -75.558)" fill="#be6f72"/>
    <path id="Path_836" data-name="Path 836" d="M707.15,364.94s8.377,5.386,8.341,11.824" transform="translate(-164.588 -82.934)" opacity="0.1"/>
    <circle id="Ellipse_235" data-name="Ellipse 235" cx="39.181" cy="39.181" r="39.181" transform="translate(432.307 47.533)" fill="#be6f72"/>
    <path id="Path_837" data-name="Path 837" d="M595.352,124.513c4.754-.746,8.92-3.508,13.464-5.1,10.166-3.57,21.411-1.123,31.7,2.1,3.947,1.237,7.956,2.631,12.1,2.631s8.534-1.693,10.648-5.263c1.947-3.28,1.57-7.543-.07-10.99s-4.386-6.219-7.157-8.833c-9.122-8.613-20.437-16.665-32.954-15.788-5.035.36-9.85,2.158-14.481,4.149a159.64,159.64,0,0,0-17,8.561c-4.219,2.447-12.034,5.719-14.464,10.192C571.608,116.251,586.756,125.864,595.352,124.513Z" transform="translate(-148.467 -48.315)" fill="#3e373a"/>
    <path id="Path_838" data-name="Path 838" d="M663.258,118.707c-2.114,3.57-6.508,5.263-10.648,5.263s-8.148-1.342-12.1-2.579c-10.289-3.219-21.525-5.675-31.7-2.1-4.535,1.588-8.71,4.386-13.464,5.087-6.929,1.088-18.086-4.947-19.3-12.622-1.36,8.868,11.578,16.464,19.3,15.253,4.754-.746,8.929-3.508,13.464-5.087,10.175-3.579,21.411-1.123,31.7,2.1,3.956,1.237,7.956,2.631,12.1,2.579s8.534-1.684,10.648-5.263a10.271,10.271,0,0,0,1.228-6.412,9.457,9.457,0,0,1-1.228,3.78Z" transform="translate(-148.466 -51.824)" opacity="0.1"/>
    <path id="Path_839" data-name="Path 839" d="M1035.995,661.63s5.2,6.8-2.4,17.069-13.867,18.937-11.341,25.34c0,0,11.473-19.069,20.805-19.341S1046.248,673.094,1035.995,661.63Z" transform="translate(-513.082 -119.391)" fill="#b97ebb"/>
    <path id="Path_840" data-name="Path 840" d="M1036.036,661.63a8.422,8.422,0,0,1,1.062,2.131c9.1,10.7,13.964,20.691,5.2,20.937-8.157.237-17.937,14.823-20.279,18.5a8.6,8.6,0,0,0,.272.877s11.473-19.069,20.805-19.341S1046.29,673.094,1036.036,661.63Z" transform="translate(-513.206 -119.391)" opacity="0.1"/>
    <path id="Path_841" data-name="Path 841" d="M1048.832,671.3c0,2.395-.272,4.333-.6,4.333s-.605-1.938-.605-4.333.333-1.263.667-1.263S1048.832,668.9,1048.832,671.3Z" transform="translate(-522.3 -120.39)" fill="#ffd037"/>
    <path id="Path_842" data-name="Path 842" d="M1052.216,674.534c-2.1,1.14-3.93,1.833-4.087,1.544s1.412-1.456,3.508-2.631,1.272-.316,1.43,0S1054.321,673.385,1052.216,674.534Z" transform="translate(-522.954 -120.769)" fill="#ffd037"/>
    <path id="Path_843" data-name="Path 843" d="M1005.026,661.63s-5.2,6.8,2.4,17.069,13.867,18.937,11.332,25.34c0,0-11.464-19.069-20.805-19.341S994.8,673.094,1005.026,661.63Z" transform="translate(-500.197 -119.391)" fill="#b97ebb"/>
    <path id="Path_844" data-name="Path 844" d="M1005.026,661.63a8.425,8.425,0,0,0-1.061,2.131c-9.1,10.7-13.964,20.691-5.2,20.937,8.148.237,17.937,14.823,20.279,18.5a6.794,6.794,0,0,1-.281.877s-11.464-19.069-20.805-19.341S994.8,673.094,1005.026,661.63Z" transform="translate(-500.168 -119.391)" opacity="0.1"/>
    <path id="Path_845" data-name="Path 845" d="M995.64,671.3c0,2.395.263,4.333.6,4.333s.605-1.938.605-4.333-.342-1.263-.667-1.263S995.64,668.9,995.64,671.3Z" transform="translate(-498.789 -120.39)" fill="#ffd037"/>
    <path id="Path_846" data-name="Path 846" d="M991.681,674.534c2.1,1.14,3.93,1.833,4.087,1.544s-1.412-1.456-3.508-2.631-1.272-.316-1.43,0S989.576,673.385,991.681,674.534Z" transform="translate(-496.828 -120.769)" fill="#ffd037"/>
    <ellipse id="Ellipse_236" data-name="Ellipse 236" cx="54.382" cy="8.341" rx="54.382" ry="8.341" transform="translate(467.016 619.996)" fill="#b97ebb" opacity="0.1"/>
    <path id="Path_847" data-name="Path 847" d="M1046.4,699.085l-.263,2.123-.368,3-.149,1.254-.368,3-.158,1.254-.36,2.991-4.166,34.12c-.368,3.044-5.342,5.421-11.35,5.421h-21.621c-6.008,0-10.973-2.377-11.35-5.421l-4.166-34.12-.368-2.991-.149-1.254-.368-3-.158-1.254-.36-3-.263-2.123c-.2-1.754,2.482-3.175,5.885-3.175h44.225C1043.913,695.91,1046.606,697.357,1046.4,699.085Z" transform="translate(-501.852 -123.603)" fill="#65617d"/>
    <path id="Path_848" data-name="Path 848" d="M957.59,658.53l-.36,3H902.5l-.368-3Z" transform="translate(-413.36 -80.925)" fill="#9d9cb5"/>
    <path id="Path_849" data-name="Path 849" d="M957.145,663.38l-.36,3h-53.7l-.368-3Z" transform="translate(-413.526 -81.521)" fill="#9d9cb5"/>
    <path id="Path_850" data-name="Path 850" d="M956.7,668.23l-.368,3H903.68l-.36-3Z" transform="translate(-413.695 -82.117)" fill="#9d9cb5"/>
  </g>
</svg>
